<mxfile host="drawio-plugin" modified="2024-02-05T03:48:26.901Z" agent="5.0 (Windows NT 10.0; Win64; x64) AppleWebKit/537.36 (KHTML, like Gecko) Chrome/111.0.0.0 Safari/537.36" etag="V-XG20upRQWr3uhntnVW" version="20.5.3" type="embed"><diagram id="C5RBs43oDa-KdzZeNtuy" name="Page-1"><mxGraphModel dx="3235" dy="740" grid="1" gridSize="10" guides="1" tooltips="1" connect="0" arrows="1" fold="1" page="1" pageScale="1" pageWidth="2336" pageHeight="1654" math="0" shadow="0"><root><mxCell id="WIyWlLk6GJQsqaUBKTNV-0"/><mxCell id="WIyWlLk6GJQsqaUBKTNV-1" parent="WIyWlLk6GJQsqaUBKTNV-0"/><mxCell id="9_fdUrSxjmN1W93VfHhp-2" value="" style="rounded=0;whiteSpace=wrap;html=1;fillColor=#dae8fc;strokeColor=#6c8ebf;fontFamily=Helvetica;" parent="WIyWlLk6GJQsqaUBKTNV-1" vertex="1"><mxGeometry x="-1993.75" y="710" width="823.75" height="250" as="geometry"/></mxCell><mxCell id="9_fdUrSxjmN1W93VfHhp-12" value="&lt;p style=&quot;margin:0px;margin-top:4px;text-align:center;&quot;&gt;&lt;b&gt;Identifier&lt;/b&gt;&lt;/p&gt;&lt;hr size=&quot;1&quot;&gt;&lt;p style=&quot;margin:0px;margin-left:4px;&quot;&gt;&lt;br&gt;&lt;/p&gt;" style="verticalAlign=top;align=left;overflow=fill;fontSize=12;fontFamily=Helvetica;html=1;sketch=0;strokeWidth=2;" parent="WIyWlLk6GJQsqaUBKTNV-1" vertex="1"><mxGeometry x="-1709" y="773.5" width="110" height="56" as="geometry"/></mxCell><mxCell id="A5fvS7BDDAw0l9XVEY4Y-33" value="&lt;p style=&quot;margin:0px;margin-top:4px;text-align:center;&quot;&gt;&lt;b&gt;EnumeratedItem&lt;/b&gt;&lt;/p&gt;&lt;hr size=&quot;1&quot;&gt;&lt;p style=&quot;margin:0px;margin-left:4px;&quot;&gt;&lt;br&gt;&lt;/p&gt;" style="verticalAlign=top;align=left;overflow=fill;fontSize=12;fontFamily=Helvetica;html=1;sketch=0;strokeWidth=2;" parent="WIyWlLk6GJQsqaUBKTNV-1" vertex="1"><mxGeometry x="-1576.5" y="861.75" width="130" height="68.25" as="geometry"/></mxCell><mxCell id="A5fvS7BDDAw0l9XVEY4Y-54" value="&lt;p style=&quot;margin:0px;margin-top:4px;text-align:center;&quot;&gt;&lt;b&gt;LocalUnit&lt;/b&gt;&lt;/p&gt;&lt;hr size=&quot;1&quot;&gt;&lt;p style=&quot;margin:0px;margin-left:4px;&quot;&gt;&amp;nbsp;&lt;br&gt;&lt;/p&gt;&lt;hr size=&quot;1&quot;&gt;&lt;p style=&quot;margin:0px;margin-left:4px;&quot;&gt;&lt;br&gt;&lt;/p&gt;" style="verticalAlign=top;align=left;overflow=fill;fontSize=12;fontFamily=Helvetica;html=1;sketch=0;strokeWidth=2;" parent="WIyWlLk6GJQsqaUBKTNV-1" vertex="1"><mxGeometry x="-1984.25" y="773.5" width="110" height="66.5" as="geometry"/></mxCell><mxCell id="A5fvS7BDDAw0l9XVEY4Y-61" value="" style="endArrow=classic;html=1;sketch=0;fontFamily=Helvetica;curved=1;" parent="WIyWlLk6GJQsqaUBKTNV-1" source="A5fvS7BDDAw0l9XVEY4Y-54" target="Fh2eQYCEiK_2gspSJ3Qt-0" edge="1"><mxGeometry width="50" height="50" relative="1" as="geometry"><mxPoint x="-1809.25" y="1357.5" as="sourcePoint"/><mxPoint x="-1894.53" y="912.836" as="targetPoint"/></mxGeometry></mxCell><mxCell id="A5fvS7BDDAw0l9XVEY4Y-97" value="For Visualisation Purposes Only&lt;br&gt;Not purely correct UML!&lt;br&gt;&lt;br&gt;1-1 correspondence to XSD does &lt;br&gt;not exist.&lt;br&gt;(e.g., XSD use will be using &quot;choice,&lt;br&gt;nor inheritance&lt;br&gt;UML does not contain restrictions)&lt;br&gt;&lt;br&gt;Default Cardinality: 1&lt;br&gt;Attributes not depicted by default&lt;br&gt;&lt;br&gt;CHOICE construct depicted" style="text;html=1;strokeColor=none;fillColor=none;align=left;verticalAlign=middle;whiteSpace=wrap;rounded=0;strokeWidth=2;fontFamily=Helvetica;" parent="WIyWlLk6GJQsqaUBKTNV-1" vertex="1"><mxGeometry x="-1521.5" y="130" width="230" height="30" as="geometry"/></mxCell><mxCell id="3pSlS8YH4z9lj6zPETBl-3" value="v&amp;nbsp; &amp;nbsp; &amp;nbsp; &amp;nbsp; &amp;nbsp; &amp;nbsp; &amp;nbsp;&amp;nbsp;" style="rounded=0;whiteSpace=wrap;html=1;fillColor=#dae8fc;strokeColor=#6c8ebf;fontFamily=Helvetica;" parent="WIyWlLk6GJQsqaUBKTNV-1" vertex="1"><mxGeometry x="-1380" y="537.5" width="210" height="155" as="geometry"/></mxCell><mxCell id="3pSlS8YH4z9lj6zPETBl-47" value="&lt;p style=&quot;margin:0px;margin-top:4px;text-align:center;&quot;&gt;&lt;b&gt;Person&lt;/b&gt;&lt;/p&gt;&lt;hr size=&quot;1&quot;&gt;&lt;p style=&quot;margin:0px;margin-left:4px;&quot;&gt;&amp;nbsp;&lt;br&gt;&lt;/p&gt;&lt;hr size=&quot;1&quot;&gt;&lt;p style=&quot;margin:0px;margin-left:4px;&quot;&gt;&lt;br&gt;&lt;/p&gt;" style="verticalAlign=top;align=left;overflow=fill;fontSize=12;fontFamily=Helvetica;html=1;sketch=0;strokeWidth=2;" parent="WIyWlLk6GJQsqaUBKTNV-1" vertex="1"><mxGeometry x="-1848.25" y="773.5" width="130" height="66.5" as="geometry"/></mxCell><mxCell id="fq_hDrngQvyFMPAxzldU-55" value="&lt;p style=&quot;margin:0px;margin-top:4px;text-align:center;&quot;&gt;&lt;b&gt;&lt;i&gt;AbstractProduct&lt;/i&gt;&lt;/b&gt;&lt;/p&gt;&lt;hr size=&quot;1&quot;&gt;&lt;p style=&quot;margin:0px;margin-left:4px;&quot;&gt;id: Identifier&lt;br&gt;&lt;/p&gt;&lt;p style=&quot;margin:0px;margin-left:4px;&quot;&gt;alternateId: Identifier&lt;/p&gt;&lt;p style=&quot;margin:0px;margin-left:4px;&quot;&gt;description: Descriptor&amp;nbsp;&lt;/p&gt;&lt;p style=&quot;margin:0px;margin-left:4px;&quot;&gt;manufacturer: LegalUnit&lt;/p&gt;&lt;p style=&quot;margin:0px;margin-left:4px;&quot;&gt;transactionUnit: Unit (kg/m3/pc)&lt;/p&gt;&lt;p style=&quot;margin:0px;margin-left:4px;&quot;&gt;density:&amp;nbsp;&lt;span style=&quot;background-color: initial;&quot;&gt;decimal (if volume used)&lt;/span&gt;&lt;/p&gt;&lt;hr size=&quot;1&quot;&gt;&lt;p style=&quot;margin:0px;margin-left:4px;&quot;&gt;&lt;br&gt;&lt;/p&gt;" style="verticalAlign=top;align=left;overflow=fill;fontSize=12;fontFamily=Helvetica;html=1;sketch=0;strokeWidth=2;" parent="WIyWlLk6GJQsqaUBKTNV-1" vertex="1"><mxGeometry x="-1712.5" y="542.5" width="220" height="150" as="geometry"/></mxCell><mxCell id="Fh2eQYCEiK_2gspSJ3Qt-0" value="&lt;p style=&quot;margin:0px;margin-top:4px;text-align:center;&quot;&gt;&lt;b&gt;LegalUnit&lt;/b&gt;&lt;/p&gt;&lt;hr size=&quot;1&quot;&gt;&lt;p style=&quot;margin:0px;margin-left:4px;&quot;&gt;&amp;nbsp;&lt;br&gt;&lt;/p&gt;&lt;hr size=&quot;1&quot;&gt;&lt;p style=&quot;margin:0px;margin-left:4px;&quot;&gt;&lt;br&gt;&lt;/p&gt;" style="verticalAlign=top;align=left;overflow=fill;fontSize=12;fontFamily=Helvetica;html=1;sketch=0;strokeWidth=2;" parent="WIyWlLk6GJQsqaUBKTNV-1" vertex="1"><mxGeometry x="-1985.5" y="861.75" width="110" height="66.5" as="geometry"/></mxCell><mxCell id="fq_hDrngQvyFMPAxzldU-75" value="&lt;p style=&quot;margin:0px;margin-top:4px;text-align:center;&quot;&gt;&lt;b&gt;Descriptor&lt;/b&gt;&lt;/p&gt;&lt;hr size=&quot;1&quot;&gt;&lt;p style=&quot;margin:0px;margin-left:4px;&quot;&gt;&lt;br&gt;&lt;/p&gt;" style="verticalAlign=top;align=left;overflow=fill;fontSize=12;fontFamily=Helvetica;html=1;sketch=0;strokeWidth=2;" parent="WIyWlLk6GJQsqaUBKTNV-1" vertex="1"><mxGeometry x="-1709" y="861.75" width="107.5" height="68.25" as="geometry"/></mxCell><mxCell id="fq_hDrngQvyFMPAxzldU-76" value="eCH-0261 Local and Legal Units, Common" style="text;html=1;strokeColor=none;fillColor=none;align=left;verticalAlign=middle;whiteSpace=wrap;rounded=0;strokeWidth=2;fontFamily=Helvetica;" parent="WIyWlLk6GJQsqaUBKTNV-1" vertex="1"><mxGeometry x="-1980.75" y="700" width="290" height="72.5" as="geometry"/></mxCell><mxCell id="fq_hDrngQvyFMPAxzldU-77" value="eCH-0265 Areas and Crops" style="text;html=1;strokeColor=none;fillColor=none;align=left;verticalAlign=middle;whiteSpace=wrap;rounded=0;strokeWidth=2;fontFamily=Helvetica;" parent="WIyWlLk6GJQsqaUBKTNV-1" vertex="1"><mxGeometry x="-1372" y="537.5" width="204" height="30" as="geometry"/></mxCell><mxCell id="fq_hDrngQvyFMPAxzldU-80" value="" style="endArrow=classic;html=1;sketch=0;fontFamily=Helvetica;curved=1;exitX=-0.004;exitY=0.281;exitDx=0;exitDy=0;exitPerimeter=0;" parent="WIyWlLk6GJQsqaUBKTNV-1" source="A5fvS7BDDAw0l9XVEY4Y-33" target="9_fdUrSxjmN1W93VfHhp-12" edge="1"><mxGeometry width="50" height="50" relative="1" as="geometry"><mxPoint x="-1375.05" y="943" as="sourcePoint"/><mxPoint x="-1536.4999999999998" y="941" as="targetPoint"/></mxGeometry></mxCell><mxCell id="fq_hDrngQvyFMPAxzldU-83" value="" style="endArrow=classic;html=1;sketch=0;fontFamily=Helvetica;curved=1;entryX=1;entryY=0.5;entryDx=0;entryDy=0;exitX=-0.008;exitY=0.542;exitDx=0;exitDy=0;exitPerimeter=0;" parent="WIyWlLk6GJQsqaUBKTNV-1" source="A5fvS7BDDAw0l9XVEY4Y-33" target="fq_hDrngQvyFMPAxzldU-75" edge="1"><mxGeometry width="50" height="50" relative="1" as="geometry"><mxPoint x="-1676.5" y="1113" as="sourcePoint"/><mxPoint x="-1866.2991543340381" y="831.25" as="targetPoint"/></mxGeometry></mxCell><mxCell id="fq_hDrngQvyFMPAxzldU-141" value="&lt;p style=&quot;margin:0px;margin-top:4px;text-align:center;&quot;&gt;&lt;b&gt;BotanicalPlant&lt;/b&gt;&lt;/p&gt;&lt;hr size=&quot;1&quot;&gt;&lt;p style=&quot;margin:0px;margin-left:4px;&quot;&gt;&lt;br&gt;&lt;/p&gt;" style="verticalAlign=top;align=left;overflow=fill;fontSize=12;fontFamily=Helvetica;html=1;sketch=0;strokeWidth=2;" parent="WIyWlLk6GJQsqaUBKTNV-1" vertex="1"><mxGeometry x="-1330" y="582.5" width="130" height="60" as="geometry"/></mxCell><mxCell id="ZqzKbb4cEfQE_WqFz7V7-11" value="" style="rounded=0;whiteSpace=wrap;html=1;fillColor=#dae8fc;strokeColor=#6c8ebf;fontFamily=Helvetica;" parent="WIyWlLk6GJQsqaUBKTNV-1" vertex="1"><mxGeometry x="-1992.5" y="450" width="237.5" height="250" as="geometry"/></mxCell><mxCell id="ZqzKbb4cEfQE_WqFz7V7-12" value="eCH-0266 Animals" style="text;html=1;strokeColor=none;fillColor=none;align=left;verticalAlign=middle;whiteSpace=wrap;rounded=0;strokeWidth=2;fontFamily=Helvetica;" parent="WIyWlLk6GJQsqaUBKTNV-1" vertex="1"><mxGeometry x="-1985" y="450" width="290" height="30" as="geometry"/></mxCell><mxCell id="ZqzKbb4cEfQE_WqFz7V7-18" value="&lt;p style=&quot;margin:0px;margin-top:4px;text-align:center;&quot;&gt;&lt;b&gt;ZoologicalAnimal&lt;/b&gt;&lt;/p&gt;&lt;hr size=&quot;1&quot;&gt;&lt;p style=&quot;margin:0px;margin-left:4px;&quot;&gt;&amp;nbsp;&amp;nbsp;&lt;br&gt;&lt;/p&gt;&lt;hr size=&quot;1&quot;&gt;&lt;p style=&quot;margin:0px;margin-left:4px;&quot;&gt;&lt;br&gt;&lt;/p&gt;" style="verticalAlign=top;align=left;overflow=fill;fontSize=12;fontFamily=Helvetica;html=1;sketch=0;strokeWidth=2;" parent="WIyWlLk6GJQsqaUBKTNV-1" vertex="1"><mxGeometry x="-1958.75" y="493.5" width="170" height="65" as="geometry"/></mxCell><mxCell id="ZqzKbb4cEfQE_WqFz7V7-43" value="&lt;p style=&quot;margin:0px;margin-top:4px;text-align:center;&quot;&gt;&lt;i&gt;«enumeration»&lt;/i&gt;&lt;/p&gt;&lt;p style=&quot;margin:0px;margin-top:4px;text-align:center;&quot;&gt;&lt;b&gt;Utilisation&lt;/b&gt;&lt;/p&gt;&lt;hr size=&quot;1&quot;&gt;&lt;p style=&quot;margin:0px;margin-left:4px;&quot;&gt;+ item: EnumeratedItem&lt;br&gt;&lt;/p&gt;&lt;hr size=&quot;1&quot;&gt;&lt;p style=&quot;margin:0px;margin-left:4px;&quot;&gt;&lt;br&gt;&lt;/p&gt;" style="verticalAlign=top;align=left;overflow=fill;fontSize=12;fontFamily=Helvetica;html=1;sketch=0;strokeWidth=2;" parent="WIyWlLk6GJQsqaUBKTNV-1" vertex="1"><mxGeometry x="-1962.5" y="585.25" width="170" height="94.75" as="geometry"/></mxCell><mxCell id="ZqzKbb4cEfQE_WqFz7V7-85" value="&lt;p style=&quot;margin:0px;margin-top:4px;text-align:center;&quot;&gt;&lt;b style=&quot;background-color: initial;&quot;&gt;Substance&lt;/b&gt;&lt;br&gt;&lt;/p&gt;&lt;hr size=&quot;1&quot;&gt;&lt;p style=&quot;margin:0px;margin-left:4px;&quot;&gt;&amp;nbsp;id: Identifier&lt;br&gt;&lt;/p&gt;&lt;p style=&quot;margin:0px;margin-left:4px;&quot;&gt;&amp;nbsp;description: Descriptor&lt;/p&gt;&lt;p style=&quot;margin:0px;margin-left:4px;&quot;&gt;&amp;nbsp;allowedUnits[]: Unit&lt;/p&gt;&lt;hr size=&quot;1&quot;&gt;&lt;p style=&quot;margin:0px;margin-left:4px;&quot;&gt;&lt;br&gt;&lt;/p&gt;" style="verticalAlign=top;align=left;overflow=fill;fontSize=12;fontFamily=Helvetica;html=1;sketch=0;strokeWidth=2;" parent="WIyWlLk6GJQsqaUBKTNV-1" vertex="1"><mxGeometry x="-1742.5" y="240" width="180" height="95" as="geometry"/></mxCell><mxCell id="ZqzKbb4cEfQE_WqFz7V7-86" value="" style="endArrow=classic;html=1;sketch=0;fontFamily=Helvetica;curved=1;exitX=0.89;exitY=-0.007;exitDx=0;exitDy=0;exitPerimeter=0;" parent="WIyWlLk6GJQsqaUBKTNV-1" source="fq_hDrngQvyFMPAxzldU-55" target="eB_fhc0voJm1Zt_swYeX-0" edge="1"><mxGeometry width="50" height="50" relative="1" as="geometry"><mxPoint x="-1422.85" y="674.3799999999999" as="sourcePoint"/><mxPoint x="-1470.75" y="481.81999999999994" as="targetPoint"/></mxGeometry></mxCell><mxCell id="ZqzKbb4cEfQE_WqFz7V7-87" value="1..*" style="text;html=1;strokeColor=none;fillColor=none;align=center;verticalAlign=middle;whiteSpace=wrap;rounded=0;fontFamily=Helvetica;" parent="WIyWlLk6GJQsqaUBKTNV-1" vertex="1"><mxGeometry x="-1452.5" y="387.5" width="60" height="30" as="geometry"/></mxCell><mxCell id="ZqzKbb4cEfQE_WqFz7V7-88" value="" style="endArrow=classic;html=1;sketch=0;fontFamily=Helvetica;curved=1;entryX=0.894;entryY=0.987;entryDx=0;entryDy=0;entryPerimeter=0;exitX=-0.017;exitY=0.358;exitDx=0;exitDy=0;exitPerimeter=0;" parent="WIyWlLk6GJQsqaUBKTNV-1" source="eB_fhc0voJm1Zt_swYeX-0" target="ZqzKbb4cEfQE_WqFz7V7-85" edge="1"><mxGeometry width="50" height="50" relative="1" as="geometry"><mxPoint x="-1557.5" y="402.125" as="sourcePoint"/><mxPoint x="-1461.2400000000002" y="478.46000000000004" as="targetPoint"/></mxGeometry></mxCell><mxCell id="ZqzKbb4cEfQE_WqFz7V7-90" value="&lt;p style=&quot;margin:0px;margin-top:4px;text-align:center;&quot;&gt;&lt;i&gt;«enumeration»&lt;/i&gt;&lt;br&gt;&lt;b&gt;ActiveSubstanceCategory&lt;/b&gt;&lt;/p&gt;&lt;hr size=&quot;1&quot;&gt;&lt;p style=&quot;margin:0px;margin-left:4px;&quot;&gt;&amp;nbsp;item: EnumeratedItem&lt;br&gt;&lt;/p&gt;&lt;hr size=&quot;1&quot;&gt;&lt;p style=&quot;margin:0px;margin-left:4px;&quot;&gt;&lt;br&gt;&lt;/p&gt;" style="verticalAlign=top;align=left;overflow=fill;fontSize=12;fontFamily=Helvetica;html=1;sketch=0;strokeWidth=2;" parent="WIyWlLk6GJQsqaUBKTNV-1" vertex="1"><mxGeometry x="-1992.5" y="240" width="180" height="100" as="geometry"/></mxCell><mxCell id="ZqzKbb4cEfQE_WqFz7V7-91" value="" style="endArrow=classic;html=1;sketch=0;fontFamily=Helvetica;curved=1;" parent="WIyWlLk6GJQsqaUBKTNV-1" source="ZqzKbb4cEfQE_WqFz7V7-85" target="ZqzKbb4cEfQE_WqFz7V7-90" edge="1"><mxGeometry width="50" height="50" relative="1" as="geometry"><mxPoint x="-1393.7600000000002" y="403.045" as="sourcePoint"/><mxPoint x="-1431.2400000000002" y="340.00499999999977" as="targetPoint"/></mxGeometry></mxCell><mxCell id="eB_fhc0voJm1Zt_swYeX-0" value="&lt;p style=&quot;margin:0px;margin-top:4px;text-align:center;&quot;&gt;&lt;b&gt;Ingredient&lt;/b&gt;&lt;/p&gt;&amp;nbsp;&lt;hr size=&quot;1&quot;&gt;&lt;p style=&quot;margin:0px;margin-left:4px;&quot;&gt;&amp;nbsp;id: Identifier&lt;br&gt;&lt;/p&gt;&lt;p style=&quot;margin:0px;margin-left:4px;&quot;&gt;&amp;nbsp;concentration: Measurement&lt;/p&gt;&lt;p style=&quot;margin:0px;margin-left:4px;&quot;&gt;&amp;nbsp;density: Measurement&lt;/p&gt;&lt;p style=&quot;margin:0px;margin-left:4px;&quot;&gt;&lt;span style=&quot;background-color: initial;&quot;&gt;&amp;nbsp;quantity: Measurement&lt;/span&gt;&lt;/p&gt;&lt;hr size=&quot;1&quot;&gt;&lt;p style=&quot;margin:0px;margin-left:4px;&quot;&gt;&lt;br&gt;&lt;/p&gt;" style="verticalAlign=top;align=left;overflow=fill;fontSize=12;fontFamily=Helvetica;html=1;sketch=0;strokeWidth=2;" parent="WIyWlLk6GJQsqaUBKTNV-1" vertex="1"><mxGeometry x="-1501.6000000000001" y="375" width="190.35" height="135" as="geometry"/></mxCell><mxCell id="eYUfmgDXyRDl5XwJps49-13" value="&lt;p style=&quot;margin:0px;margin-top:4px;text-align:center;&quot;&gt;&lt;b&gt;ProductFamily&lt;/b&gt;&lt;/p&gt;&lt;hr size=&quot;1&quot;&gt;&lt;p style=&quot;margin:0px;margin-left:4px;&quot;&gt;+ item: EnumeratedItem&lt;br&gt;&lt;/p&gt;&lt;hr size=&quot;1&quot;&gt;&lt;p style=&quot;margin:0px;margin-left:4px;&quot;&gt;&lt;br&gt;&lt;/p&gt;" style="verticalAlign=top;align=left;overflow=fill;fontSize=12;fontFamily=Helvetica;html=1;sketch=0;strokeWidth=2;" parent="WIyWlLk6GJQsqaUBKTNV-1" vertex="1"><mxGeometry x="-1898.25" y="355" width="180" height="75" as="geometry"/></mxCell><mxCell id="8MJOqnOzI6ZtPtBTbAP--10" value="&lt;p style=&quot;margin:0px;margin-top:4px;text-align:center;&quot;&gt;&lt;b&gt;Unit&lt;/b&gt;&lt;/p&gt;&lt;hr size=&quot;1&quot;&gt;&lt;p style=&quot;margin:0px;margin-left:4px;&quot;&gt;&lt;br&gt;&lt;/p&gt;" style="verticalAlign=top;align=left;overflow=fill;fontSize=12;fontFamily=Helvetica;html=1;sketch=0;strokeWidth=2;" parent="WIyWlLk6GJQsqaUBKTNV-1" vertex="1"><mxGeometry x="-1848.25" y="861.75" width="130" height="66.5" as="geometry"/></mxCell><mxCell id="8MJOqnOzI6ZtPtBTbAP--11" value="&lt;p style=&quot;margin:0px;margin-top:4px;text-align:center;&quot;&gt;&lt;b&gt;CrossResistence&lt;/b&gt;&lt;/p&gt;&lt;p style=&quot;margin:0px;margin-top:4px;text-align:center;&quot;&gt;&lt;b&gt;Pattern&lt;/b&gt;&lt;/p&gt;&lt;hr size=&quot;1&quot;&gt;&lt;p style=&quot;margin:0px;margin-left:4px;&quot;&gt;&amp;nbsp;item: EnumeratedItem&lt;br&gt;&lt;/p&gt;&lt;hr size=&quot;1&quot;&gt;&lt;p style=&quot;margin:0px;margin-left:4px;&quot;&gt;&lt;br&gt;&lt;/p&gt;" style="verticalAlign=top;align=left;overflow=fill;fontSize=12;fontFamily=Helvetica;html=1;sketch=0;strokeWidth=2;" parent="WIyWlLk6GJQsqaUBKTNV-1" vertex="1"><mxGeometry x="-1483.75" y="255" width="172.5" height="100" as="geometry"/></mxCell><mxCell id="8MJOqnOzI6ZtPtBTbAP--12" value="" style="endArrow=classic;html=1;sketch=0;fontFamily=Helvetica;curved=1;entryX=0.005;entryY=0.4;entryDx=0;entryDy=0;entryPerimeter=0;exitX=1.008;exitY=0.306;exitDx=0;exitDy=0;exitPerimeter=0;" parent="WIyWlLk6GJQsqaUBKTNV-1" target="8MJOqnOzI6ZtPtBTbAP--11" edge="1"><mxGeometry width="50" height="50" relative="1" as="geometry"><mxPoint x="-1561.06" y="274.06999999999994" as="sourcePoint"/><mxPoint x="-1503.3399999999997" y="291.5" as="targetPoint"/></mxGeometry></mxCell><mxCell id="8MJOqnOzI6ZtPtBTbAP--13" value="0..1" style="text;html=1;strokeColor=none;fillColor=none;align=center;verticalAlign=middle;whiteSpace=wrap;rounded=0;fontFamily=Helvetica;" parent="WIyWlLk6GJQsqaUBKTNV-1" vertex="1"><mxGeometry x="-1530" y="290" width="60" height="30" as="geometry"/></mxCell><mxCell id="8MJOqnOzI6ZtPtBTbAP--22" value="1..*" style="text;html=1;strokeColor=none;fillColor=none;align=center;verticalAlign=middle;whiteSpace=wrap;rounded=0;fontFamily=Helvetica;" parent="WIyWlLk6GJQsqaUBKTNV-1" vertex="1"><mxGeometry x="-1729.5" y="377.5" width="60" height="30" as="geometry"/></mxCell><mxCell id="8MJOqnOzI6ZtPtBTbAP--23" value="" style="endArrow=classic;html=1;sketch=0;fontFamily=Helvetica;curved=1;entryX=1;entryY=0.403;entryDx=0;entryDy=0;entryPerimeter=0;exitX=0.59;exitY=0.99;exitDx=0;exitDy=0;exitPerimeter=0;" parent="WIyWlLk6GJQsqaUBKTNV-1" source="ZqzKbb4cEfQE_WqFz7V7-85" target="eYUfmgDXyRDl5XwJps49-13" edge="1"><mxGeometry width="50" height="50" relative="1" as="geometry"><mxPoint x="-1769.25" y="355" as="sourcePoint"/><mxPoint x="-1828.25" y="320" as="targetPoint"/></mxGeometry></mxCell><mxCell id="8MJOqnOzI6ZtPtBTbAP--24" value="allowedFor" style="text;html=1;strokeColor=none;fillColor=none;align=center;verticalAlign=middle;whiteSpace=wrap;rounded=0;fontFamily=Helvetica;" parent="WIyWlLk6GJQsqaUBKTNV-1" vertex="1"><mxGeometry x="-1679.15" y="355" width="60" height="30" as="geometry"/></mxCell><mxCell id="qUsIdyUmsrlXsUjqDphB-0" value="1..*" style="text;html=1;strokeColor=none;fillColor=none;align=center;verticalAlign=middle;whiteSpace=wrap;rounded=0;fontFamily=Helvetica;" parent="WIyWlLk6GJQsqaUBKTNV-1" vertex="1"><mxGeometry x="-1490" y="510" width="60" height="30" as="geometry"/></mxCell><mxCell id="qUsIdyUmsrlXsUjqDphB-1" value="&lt;p style=&quot;margin:0px;margin-top:4px;text-align:center;&quot;&gt;&lt;b&gt;Validity&lt;/b&gt;&lt;/p&gt;&lt;hr size=&quot;1&quot;&gt;&lt;p style=&quot;margin:0px;margin-left:4px;&quot;&gt;&lt;br&gt;&lt;/p&gt;" style="verticalAlign=top;align=left;overflow=fill;fontSize=12;fontFamily=Helvetica;html=1;sketch=0;strokeWidth=2;" parent="WIyWlLk6GJQsqaUBKTNV-1" vertex="1"><mxGeometry x="-1576.5" y="773.5" width="130" height="56" as="geometry"/></mxCell><mxCell id="qUsIdyUmsrlXsUjqDphB-3" value="&lt;p style=&quot;margin:0px;margin-top:4px;text-align:center;&quot;&gt;&lt;b&gt;Measurement&lt;/b&gt;&lt;/p&gt;&lt;hr size=&quot;1&quot;&gt;&lt;p style=&quot;margin:0px;margin-left:4px;&quot;&gt;&lt;br&gt;&lt;/p&gt;" style="verticalAlign=top;align=left;overflow=fill;fontSize=12;fontFamily=Helvetica;html=1;sketch=0;strokeWidth=2;" parent="WIyWlLk6GJQsqaUBKTNV-1" vertex="1"><mxGeometry x="-1424" y="773.5" width="110" height="61.5" as="geometry"/></mxCell><mxCell id="qUsIdyUmsrlXsUjqDphB-5" value="&lt;p style=&quot;margin:0px;margin-top:4px;text-align:center;&quot;&gt;&lt;b&gt;MetaIngredient&lt;/b&gt;&lt;/p&gt;&amp;nbsp;&lt;hr size=&quot;1&quot;&gt;&lt;p style=&quot;margin:0px;margin-left:4px;&quot;&gt;&amp;nbsp;id: Identifier&lt;br&gt;&lt;/p&gt;&lt;p style=&quot;margin:0px;margin-left:4px;&quot;&gt;&amp;nbsp;concentration: Measurement&lt;/p&gt;&lt;p style=&quot;margin:0px;margin-left:4px;&quot;&gt;&amp;nbsp;density: Measurement&lt;/p&gt;&lt;p style=&quot;margin:0px;margin-left:4px;&quot;&gt;&lt;span style=&quot;background-color: initial;&quot;&gt;&amp;nbsp;quantity: Measurement&lt;/span&gt;&lt;/p&gt;&lt;p style=&quot;margin:0px;margin-left:4px;&quot;&gt;&lt;span style=&quot;background-color: initial;&quot;&gt;&amp;nbsp;required: Veracity&lt;/span&gt;&lt;/p&gt;&lt;p style=&quot;margin:0px;margin-left:4px;&quot;&gt;&lt;span style=&quot;background-color: initial;&quot;&gt;&amp;nbsp;minQuantity: Measurement&lt;/span&gt;&lt;/p&gt;&lt;p style=&quot;margin:0px;margin-left:4px;&quot;&gt;&lt;span style=&quot;background-color: initial;&quot;&gt;&amp;nbsp;maxQuantity: Measurement&lt;/span&gt;&lt;/p&gt;&lt;p style=&quot;margin:0px;margin-left:4px;&quot;&gt;&lt;span style=&quot;background-color: initial;&quot;&gt;&amp;nbsp;defaultQuantity: Measurement&lt;/span&gt;&lt;/p&gt;&lt;p style=&quot;margin:0px;margin-left:4px;&quot;&gt;&lt;span style=&quot;background-color: initial;&quot;&gt;&lt;br&gt;&lt;/span&gt;&lt;/p&gt;&lt;p style=&quot;margin:0px;margin-left:4px;&quot;&gt;&lt;span style=&quot;background-color: initial;&quot;&gt;&lt;br&gt;&lt;/span&gt;&lt;/p&gt;&lt;hr size=&quot;1&quot;&gt;&lt;p style=&quot;margin:0px;margin-left:4px;&quot;&gt;&lt;br&gt;&lt;/p&gt;" style="verticalAlign=top;align=left;overflow=fill;fontSize=12;fontFamily=Helvetica;html=1;sketch=0;strokeWidth=2;" parent="WIyWlLk6GJQsqaUBKTNV-1" vertex="1"><mxGeometry x="-1992.5" y="60" width="219.1" height="170" as="geometry"/></mxCell><mxCell id="qUsIdyUmsrlXsUjqDphB-7" value="&lt;p style=&quot;margin:0px;margin-top:4px;text-align:center;&quot;&gt;&lt;b&gt;Veracity&lt;/b&gt;&lt;/p&gt;&lt;hr size=&quot;1&quot;&gt;&lt;p style=&quot;margin:0px;margin-left:4px;&quot;&gt;&lt;br&gt;&lt;/p&gt;" style="verticalAlign=top;align=left;overflow=fill;fontSize=12;fontFamily=Helvetica;html=1;sketch=0;strokeWidth=2;" parent="WIyWlLk6GJQsqaUBKTNV-1" vertex="1"><mxGeometry x="-1294" y="773.5" width="110" height="61.5" as="geometry"/></mxCell><mxCell id="qUsIdyUmsrlXsUjqDphB-8" value="" style="endArrow=classic;html=1;sketch=0;fontFamily=Helvetica;curved=1;entryX=0.006;entryY=0.011;entryDx=0;entryDy=0;entryPerimeter=0;" parent="WIyWlLk6GJQsqaUBKTNV-1" source="qUsIdyUmsrlXsUjqDphB-5" target="ZqzKbb4cEfQE_WqFz7V7-85" edge="1"><mxGeometry width="50" height="50" relative="1" as="geometry"><mxPoint x="-1540" y="109.99999999999994" as="sourcePoint"/><mxPoint x="-1482.2799999999997" y="127.43" as="targetPoint"/></mxGeometry></mxCell><mxCell id="qUsIdyUmsrlXsUjqDphB-9" value="&lt;p style=&quot;margin:0px;margin-top:4px;text-align:center;&quot;&gt;&lt;b&gt;Descriptor&lt;/b&gt;&lt;/p&gt;&lt;hr size=&quot;1&quot;&gt;&lt;p style=&quot;margin:0px;margin-left:4px;&quot;&gt;&lt;br&gt;&lt;/p&gt;" style="verticalAlign=top;align=left;overflow=fill;fontSize=12;fontFamily=Helvetica;html=1;sketch=0;strokeWidth=2;" parent="WIyWlLk6GJQsqaUBKTNV-1" vertex="1"><mxGeometry x="-1424" y="861.5" width="110" height="68.5" as="geometry"/></mxCell><mxCell id="1" value="" style="rounded=0;whiteSpace=wrap;html=1;fontFamily=Helvetica;" parent="WIyWlLk6GJQsqaUBKTNV-1" vertex="1"><mxGeometry x="-1755" y="60" width="211.7" height="100" as="geometry"/></mxCell><mxCell id="9_fdUrSxjmN1W93VfHhp-1" value="&lt;h1&gt;&lt;span style=&quot;background-color: initial;&quot;&gt;eCH-0263&lt;/span&gt;&lt;/h1&gt;&lt;div&gt;&lt;br&gt;&lt;/div&gt;" style="text;html=1;strokeColor=none;fillColor=none;spacing=5;spacingTop=-20;whiteSpace=wrap;overflow=hidden;rounded=0;strokeWidth=2;fontFamily=Helvetica;" parent="WIyWlLk6GJQsqaUBKTNV-1" vertex="1"><mxGeometry x="-1741.5" y="60" width="195.7" height="50" as="geometry"/></mxCell><mxCell id="2" value="Resources&amp;nbsp; / Overview" style="text;html=1;strokeColor=none;fillColor=none;align=center;verticalAlign=middle;whiteSpace=wrap;rounded=0;fontFamily=Helvetica;" parent="WIyWlLk6GJQsqaUBKTNV-1" vertex="1"><mxGeometry x="-1755" y="110" width="152" height="30" as="geometry"/></mxCell></root></mxGraphModel></diagram></mxfile>